%TF.GenerationSoftware,KiCad,Pcbnew,10.0.6*%
%TF.CreationDate,2026-09-23T21:09:41+01:00*%
%TF.ProjectId,Table_Controller,5461626c-655f-4436-9f6e-74726f6c6c65,rev?*%
%TF.SameCoordinates,Original*%
%TF.FileFunction,Soldermask,Bot*%
%TF.FilePolarity,Negative*%
%FSLAX46Y46*%
G04 Gerber Fmt 4.6, Leading zero omitted, Abs format (unit mm)*
G04 Created by KiCad (PCBNEW 10.0.6) date 2026-09-23 21:09:41*
%MOMM*%
%LPD*%
G01*
G04 APERTURE LIST*
G04 Aperture macros list*
%AMRoundRect*
0 Rectangle with rounded corners*
0 $1 Rounding radius*
0 $2 $3 $4 $5 $6 $7 $8 $9 X,Y pos of 4 corners*
0 Add a 4 corners polygon primitive as box body*
4,1,4,$2,$3,$4,$5,$6,$7,$8,$9,$2,$3,0*
0 Add four circle primitives for the rounded corners*
1,1,$1+$1,$2,$3*
1,1,$1+$1,$4,$5*
1,1,$1+$1,$6,$7*
1,1,$1+$1,$8,$9*
0 Add four rect primitives between the rounded corners*
20,1,$1+$1,$2,$3,$4,$5,0*
20,1,$1+$1,$4,$5,$6,$7,0*
20,1,$1+$1,$6,$7,$8,$9,0*
20,1,$1+$1,$8,$9,$2,$3,0*%
G04 Aperture macros list end*
%ADD10C,0.550000*%
%ADD11C,0.010000*%
%ADD12C,1.000000*%
%ADD13RoundRect,0.251867X6.225133X0.827633X-6.225133X0.827633X-6.225133X-0.827633X6.225133X-0.827633X0*%
%ADD14C,1.400000*%
%ADD15RoundRect,0.250000X0.600000X0.725000X-0.600000X0.725000X-0.600000X-0.725000X0.600000X-0.725000X0*%
%ADD16O,1.700000X1.950000*%
%ADD17RoundRect,0.250000X-0.600000X-0.725000X0.600000X-0.725000X0.600000X0.725000X-0.600000X0.725000X0*%
%ADD18O,1.000000X0.850000*%
%ADD19O,1.000000X1.800000*%
%ADD20C,1.200000*%
%ADD21O,2.600000X1.600000*%
%ADD22C,1.600000*%
%ADD23R,1.600000X2.600000*%
%ADD24R,1.700000X1.700000*%
%ADD25C,1.700000*%
%ADD26RoundRect,0.080000X-0.545000X0.545000X-0.545000X-0.545000X0.545000X-0.545000X0.545000X0.545000X0*%
%ADD27C,1.250000*%
%ADD28C,5.000000*%
G04 APERTURE END LIST*
D10*
X39899000Y-36322000D02*
G75*
G02*
X39349000Y-36322000I-275000J0D01*
G01*
X39349000Y-36322000D02*
G75*
G02*
X39899000Y-36322000I275000J0D01*
G01*
X41677000Y-36322000D02*
G75*
G02*
X41127000Y-36322000I-275000J0D01*
G01*
X41127000Y-36322000D02*
G75*
G02*
X41677000Y-36322000I275000J0D01*
G01*
X58695000Y-36576000D02*
G75*
G02*
X58145000Y-36576000I-275000J0D01*
G01*
X58145000Y-36576000D02*
G75*
G02*
X58695000Y-36576000I275000J0D01*
G01*
X64791000Y-34925000D02*
G75*
G02*
X64241000Y-34925000I-275000J0D01*
G01*
X64241000Y-34925000D02*
G75*
G02*
X64791000Y-34925000I275000J0D01*
G01*
X64918000Y-31115000D02*
G75*
G02*
X64368000Y-31115000I-275000J0D01*
G01*
X64368000Y-31115000D02*
G75*
G02*
X64918000Y-31115000I275000J0D01*
G01*
D11*
X96266000Y-47244000D02*
X108458000Y-47244000D01*
X108458000Y-49894000D01*
X96266000Y-49894000D01*
X96266000Y-47244000D01*
G36*
X96266000Y-47244000D02*
G01*
X108458000Y-47244000D01*
X108458000Y-49894000D01*
X96266000Y-49894000D01*
X96266000Y-47244000D01*
G37*
X96266000Y-49784000D02*
X98044000Y-49784000D01*
X98044000Y-52324000D01*
X96266000Y-52324000D01*
X96266000Y-49784000D01*
G36*
X96266000Y-49784000D02*
G01*
X98044000Y-49784000D01*
X98044000Y-52324000D01*
X96266000Y-52324000D01*
X96266000Y-49784000D01*
G37*
X106680000Y-49784000D02*
X108458000Y-49784000D01*
X108458000Y-52324000D01*
X106680000Y-52324000D01*
X106680000Y-49784000D01*
G36*
X106680000Y-49784000D02*
G01*
X108458000Y-49784000D01*
X108458000Y-52324000D01*
X106680000Y-52324000D01*
X106680000Y-49784000D01*
G37*
D12*
%TO.C,TP21*%
X55880000Y-29464000D03*
%TD*%
%TO.C,TP20*%
X73406000Y-60452000D03*
%TD*%
%TO.C,TP19*%
X30226000Y-26416000D03*
%TD*%
%TO.C,TP18*%
X91440000Y-52324000D03*
%TD*%
%TO.C,TP17*%
X29464000Y-49022000D03*
%TD*%
D13*
%TO.C,J8*%
X79756000Y-22923500D03*
X79756000Y-26352500D03*
%TD*%
D12*
%TO.C,TP3*%
X35052000Y-50292000D03*
%TD*%
D14*
%TO.C,JP22*%
X71032000Y-29210000D03*
X71032000Y-36830000D03*
%TD*%
D12*
%TO.C,TP5*%
X69850000Y-53340000D03*
%TD*%
%TO.C,TP1*%
X72136000Y-53340000D03*
%TD*%
%TO.C,TP15*%
X55880000Y-27178000D03*
%TD*%
%TO.C,TP10*%
X91440000Y-50038000D03*
%TD*%
D14*
%TO.C,JP18*%
X68834000Y-30988000D03*
X68834000Y-38608000D03*
%TD*%
D12*
%TO.C,TP16*%
X50800000Y-60706000D03*
%TD*%
D15*
%TO.C,J7*%
X68585300Y-17623000D03*
D16*
X66085300Y-17623000D03*
X63585300Y-17623000D03*
X61085300Y-17623000D03*
X58585300Y-17623000D03*
X56085300Y-17623000D03*
%TD*%
D14*
%TO.C,JP9*%
X29024000Y-34832000D03*
X29024000Y-39912000D03*
%TD*%
D12*
%TO.C,TP2*%
X71374000Y-43434000D03*
%TD*%
%TO.C,TP14*%
X30226000Y-23876000D03*
%TD*%
%TO.C,TP12*%
X53340000Y-29718000D03*
%TD*%
D17*
%TO.C,J1*%
X30286000Y-58911000D03*
D16*
X32786000Y-58911000D03*
X35286000Y-58911000D03*
X37786000Y-58911000D03*
%TD*%
D12*
%TO.C,TP11*%
X45974000Y-43434000D03*
%TD*%
D18*
%TO.C,J5*%
X46061000Y-60492000D03*
X46061000Y-59392000D03*
X46061000Y-58292000D03*
X46061000Y-57192000D03*
X46061000Y-56092000D03*
X46061000Y-54992000D03*
X46061000Y-53892000D03*
X46061000Y-52792000D03*
X47411000Y-52792000D03*
X47411000Y-53892000D03*
X47411000Y-54992000D03*
X47411000Y-56092000D03*
X47411000Y-57192000D03*
X47411000Y-58292000D03*
X47411000Y-59392000D03*
X47411000Y-60492000D03*
D19*
X44586000Y-59142000D03*
X48886000Y-59142000D03*
X44586000Y-54142000D03*
X48886000Y-54142000D03*
%TD*%
D12*
%TO.C,TP8*%
X48260000Y-45212000D03*
%TD*%
D20*
%TO.C,J6*%
X100637000Y-60546000D03*
X104087000Y-60546000D03*
D21*
X99587000Y-50996000D03*
X105137000Y-50996000D03*
D22*
X102362000Y-50996000D03*
D21*
X102362000Y-54396000D03*
X102362000Y-58196000D03*
D23*
X97587000Y-54096000D03*
X97587000Y-60496000D03*
X107137000Y-54096000D03*
X107137000Y-60496000D03*
%TD*%
D12*
%TO.C,TP7*%
X85344000Y-44450000D03*
%TD*%
%TO.C,TP6*%
X73660000Y-56642000D03*
%TD*%
%TO.C,TP4*%
X32766000Y-50292000D03*
%TD*%
%TO.C,TP9*%
X50038000Y-33782000D03*
%TD*%
%TO.C,TP13*%
X50800000Y-29718000D03*
%TD*%
D24*
%TO.C,J2*%
X91064000Y-42042000D03*
D25*
X91064000Y-39502000D03*
X91064000Y-36962000D03*
X91064000Y-34422000D03*
%TD*%
D26*
%TO.C,J4*%
X56927500Y-54457600D03*
D27*
X56927500Y-55727600D03*
X58197500Y-54457600D03*
X58197500Y-55727600D03*
X59467500Y-54457600D03*
X59467500Y-55727600D03*
X60737500Y-54457600D03*
X60737500Y-55727600D03*
X62007500Y-54457600D03*
X62007500Y-55727600D03*
%TD*%
D28*
%TO.C,TFT1*%
X22804000Y-56592000D03*
X90064000Y-56592000D03*
X22804000Y-19872000D03*
X90064000Y-19872000D03*
%TD*%
D24*
%TO.C,J3*%
X17884000Y-54742000D03*
D25*
X17884000Y-52202000D03*
X17884000Y-49662000D03*
X17884000Y-47122000D03*
X17884000Y-44582000D03*
X17884000Y-42042000D03*
X17884000Y-39502000D03*
X17884000Y-36962000D03*
X17884000Y-34422000D03*
X17884000Y-31882000D03*
X17884000Y-29342000D03*
X17884000Y-26802000D03*
X17884000Y-24262000D03*
X17884000Y-21722000D03*
%TD*%
M02*
