M48
; DRILL file KiCad 10.0.6 date 2026-09-23T21:10:03
; FORMAT={-:-/ absolute / metric / decimal}
; #@! TF.CreationDate,2026-09-23T21:10:03+01:00
; #@! TF.GenerationSoftware,Kicad,Pcbnew,10.0.6
; #@! TF.FileFunction,Plated,1,4,PTH
FMAT,2
METRIC
; #@! TA.AperFunction,Plated,PTH,ViaDrill
T1C0.300
; #@! TA.AperFunction,Plated,PTH,ComponentDrill
T2C0.300
; #@! TA.AperFunction,Plated,PTH,ViaDrill
T3C0.400
; #@! TA.AperFunction,Plated,PTH,ComponentDrill
T4C0.400
; #@! TA.AperFunction,Plated,PTH,ViaDrill
T5C0.500
; #@! TA.AperFunction,Plated,PTH,ComponentDrill
T6C0.500
; #@! TA.AperFunction,Plated,PTH,ComponentDrill
T7C0.600
; #@! TA.AperFunction,Plated,PTH,ComponentDrill
T8C0.700
; #@! TA.AperFunction,Plated,PTH,ComponentDrill
T9C0.740
; #@! TA.AperFunction,Plated,PTH,ComponentDrill
T10C0.950
; #@! TA.AperFunction,Plated,PTH,ComponentDrill
T11C1.000
%
G90
G05
T1
X19.05Y-58.928
X29.464Y-51.122
X32.258Y-28.702
X33.02Y-40.132
X33.02Y-55.626
X34.798Y-55.626
X35.306Y-23.876
X36.068Y-42.418
X38.354Y-51.122
X40.64Y-28.448
X41.656Y-29.972
X43.18Y-46.736
X44.704Y-23.114
X47.498Y-30.734
X48.006Y-25.908
X48.514Y-19.558
X48.524Y-16.002
X52.832Y-21.844
X55.88Y-33.02
X57.658Y-25.146
X78.74Y-47.244
X78.74Y-48.768
X78.74Y-50.546
X78.74Y-52.07
X87.376Y-50.546
X87.376Y-52.07
T2
X71.71Y-47.61
X71.71Y-48.91
X73.01Y-47.61
X73.01Y-48.91
X74.31Y-47.61
X74.31Y-48.91
X75.61Y-47.61
X75.61Y-48.91
T3
X39.624Y-36.322
X41.402Y-36.322
X58.42Y-36.576
X64.516Y-34.925
X64.643Y-31.115
T5
X60.579Y-27.305
X60.579Y-38.735
X61.214Y-26.035
X61.214Y-40.005
X61.849Y-27.305
X61.849Y-38.735
X62.484Y-26.035
X62.484Y-28.575
X62.484Y-37.465
X62.484Y-40.005
X63.119Y-27.305
X63.119Y-38.735
X63.754Y-26.035
X63.754Y-28.575
X63.754Y-37.465
X63.754Y-40.005
X64.389Y-27.305
X64.389Y-38.735
X65.024Y-26.035
X65.024Y-28.575
X65.024Y-37.465
X65.024Y-40.005
X65.659Y-27.305
X65.659Y-38.735
X66.294Y-26.035
X66.294Y-40.005
X66.929Y-27.305
X66.929Y-38.735
X73.914Y-19.812
X73.914Y-21.082
X74.676Y-30.734
X74.676Y-35.814
X76.708Y-30.734
X76.708Y-35.814
X82.804Y-30.734
X82.804Y-35.814
X84.836Y-30.734
X84.836Y-35.814
X85.598Y-21.082
X87.122Y-22.86
T6
X29.464Y-49.022
X30.226Y-23.876
X30.226Y-26.416
X32.766Y-50.292
X35.052Y-50.292
X45.974Y-43.434
X46.061Y-52.792
X46.061Y-53.892
X46.061Y-54.992
X46.061Y-56.092
X46.061Y-57.192
X46.061Y-58.292
X46.061Y-59.392
X46.061Y-60.492
X47.411Y-52.792
X47.411Y-53.892
X47.411Y-54.992
X47.411Y-56.092
X47.411Y-57.192
X47.411Y-58.292
X47.411Y-59.392
X47.411Y-60.492
X48.26Y-45.212
X50.038Y-33.782
X50.8Y-29.718
X50.8Y-60.706
X53.34Y-29.718
X55.88Y-27.178
X55.88Y-29.464
X69.85Y-53.34
X71.374Y-43.434
X72.136Y-53.34
X73.406Y-60.452
X73.66Y-56.642
X85.344Y-44.45
X91.44Y-50.038
X91.44Y-52.324
T7
X102.362Y-50.996
T8
X29.024Y-34.832
X29.024Y-39.912
X68.834Y-30.988
X68.834Y-38.608
X71.032Y-29.21
X71.032Y-36.83
T9
X56.927Y-54.458
X56.927Y-55.728
X58.197Y-54.458
X58.197Y-55.728
X59.467Y-54.458
X59.467Y-55.728
X60.737Y-54.458
X60.737Y-55.728
X62.008Y-54.458
X62.008Y-55.728
T10
X30.286Y-58.911
X32.786Y-58.911
X35.286Y-58.911
X37.786Y-58.911
X56.085Y-17.623
X58.585Y-17.623
X61.085Y-17.623
X63.585Y-17.623
X66.085Y-17.623
X68.585Y-17.623
T11
X17.884Y-21.722
X17.884Y-24.262
X17.884Y-26.802
X17.884Y-29.342
X17.884Y-31.882
X17.884Y-34.422
X17.884Y-36.962
X17.884Y-39.502
X17.884Y-42.042
X17.884Y-44.582
X17.884Y-47.122
X17.884Y-49.662
X17.884Y-52.202
X17.884Y-54.742
X91.064Y-34.422
X91.064Y-36.962
X91.064Y-39.502
X91.064Y-42.042
T4
X97.587Y-53.596G85X97.587Y-54.596
G05
X97.587Y-59.996G85X97.587Y-60.996
G05
X99.087Y-50.996G85X100.087Y-50.996
G05
X101.862Y-54.396G85X102.862Y-54.396
G05
X101.862Y-58.196G85X102.862Y-58.196
G05
X104.637Y-50.996G85X105.637Y-50.996
G05
X107.137Y-53.596G85X107.137Y-54.596
G05
X107.137Y-59.996G85X107.137Y-60.996
G05
T6
X44.586Y-54.542G85X44.586Y-53.742
G05
X44.586Y-59.542G85X44.586Y-58.742
G05
X48.886Y-54.542G85X48.886Y-53.742
G05
X48.886Y-59.542G85X48.886Y-58.742
G05
M30
