%TF.GenerationSoftware,KiCad,Pcbnew,10.0.6*%
%TF.CreationDate,2026-09-23T21:09:40+01:00*%
%TF.ProjectId,Table_Controller,5461626c-655f-4436-9f6e-74726f6c6c65,rev?*%
%TF.SameCoordinates,Original*%
%TF.FileFunction,Paste,Top*%
%TF.FilePolarity,Positive*%
%FSLAX46Y46*%
G04 Gerber Fmt 4.6, Leading zero omitted, Abs format (unit mm)*
G04 Created by KiCad (PCBNEW 10.0.6) date 2026-09-23 21:09:40*
%MOMM*%
%LPD*%
G01*
G04 APERTURE LIST*
G04 Aperture macros list*
%AMRoundRect*
0 Rectangle with rounded corners*
0 $1 Rounding radius*
0 $2 $3 $4 $5 $6 $7 $8 $9 X,Y pos of 4 corners*
0 Add a 4 corners polygon primitive as box body*
4,1,4,$2,$3,$4,$5,$6,$7,$8,$9,$2,$3,0*
0 Add four circle primitives for the rounded corners*
1,1,$1+$1,$2,$3*
1,1,$1+$1,$4,$5*
1,1,$1+$1,$6,$7*
1,1,$1+$1,$8,$9*
0 Add four rect primitives between the rounded corners*
20,1,$1+$1,$2,$3,$4,$5,0*
20,1,$1+$1,$4,$5,$6,$7,0*
20,1,$1+$1,$6,$7,$8,$9,0*
20,1,$1+$1,$8,$9,$2,$3,0*%
%AMFreePoly0*
4,1,33,0.340887,0.456921,0.417938,0.405438,0.469421,0.328387,0.487500,0.237500,0.487500,0.150000,1.000000,0.150000,1.029264,0.147118,1.083336,0.124720,1.124720,0.083336,1.147118,0.029264,1.147118,-0.029264,1.124720,-0.083336,1.083336,-0.124720,1.029264,-0.147118,1.000000,-0.150000,0.487500,-0.150000,0.487500,-0.237500,0.469421,-0.328387,0.417938,-0.405438,0.340887,-0.456921,
0.250000,-0.475000,-0.250000,-0.475000,-0.340887,-0.456921,-0.417938,-0.405438,-0.469421,-0.328387,-0.487500,-0.237500,-0.487500,0.237500,-0.469421,0.328387,-0.417938,0.405438,-0.340887,0.456921,-0.250000,0.475000,0.250000,0.475000,0.340887,0.456921,0.340887,0.456921,$1*%
G04 Aperture macros list end*
%ADD10RoundRect,0.250000X-1.750000X-1.000000X1.750000X-1.000000X1.750000X1.000000X-1.750000X1.000000X0*%
%ADD11RoundRect,0.250000X6.227000X0.829500X-6.227000X0.829500X-6.227000X-0.829500X6.227000X-0.829500X0*%
%ADD12RoundRect,0.250000X0.512000X0.829500X-0.512000X0.829500X-0.512000X-0.829500X0.512000X-0.829500X0*%
%ADD13RoundRect,0.237500X-0.237500X0.300000X-0.237500X-0.300000X0.237500X-0.300000X0.237500X0.300000X0*%
%ADD14FreePoly0,180.000000*%
%ADD15FreePoly0,0.000000*%
%ADD16RoundRect,0.237500X0.237500X-0.250000X0.237500X0.250000X-0.237500X0.250000X-0.237500X-0.250000X0*%
%ADD17RoundRect,0.237500X-0.237500X0.250000X-0.237500X-0.250000X0.237500X-0.250000X0.237500X0.250000X0*%
%ADD18RoundRect,0.162500X-0.575000X-0.162500X0.575000X-0.162500X0.575000X0.162500X-0.575000X0.162500X0*%
%ADD19RoundRect,0.250000X0.400000X0.625000X-0.400000X0.625000X-0.400000X-0.625000X0.400000X-0.625000X0*%
%ADD20RoundRect,0.237500X-0.300000X-0.237500X0.300000X-0.237500X0.300000X0.237500X-0.300000X0.237500X0*%
%ADD21RoundRect,0.237500X0.237500X-0.300000X0.237500X0.300000X-0.237500X0.300000X-0.237500X-0.300000X0*%
%ADD22RoundRect,0.125000X-0.125000X0.625000X-0.125000X-0.625000X0.125000X-0.625000X0.125000X0.625000X0*%
%ADD23RoundRect,0.125000X-0.625000X0.125000X-0.625000X-0.125000X0.625000X-0.125000X0.625000X0.125000X0*%
%ADD24R,3.100000X2.600000*%
%ADD25R,0.600000X1.550000*%
%ADD26RoundRect,0.237500X0.300000X0.237500X-0.300000X0.237500X-0.300000X-0.237500X0.300000X-0.237500X0*%
%ADD27RoundRect,0.150000X-0.150000X0.512500X-0.150000X-0.512500X0.150000X-0.512500X0.150000X0.512500X0*%
%ADD28RoundRect,0.250000X0.412500X1.100000X-0.412500X1.100000X-0.412500X-1.100000X0.412500X-1.100000X0*%
%ADD29RoundRect,0.237500X0.250000X0.237500X-0.250000X0.237500X-0.250000X-0.237500X0.250000X-0.237500X0*%
%ADD30RoundRect,0.250000X-0.625000X0.400000X-0.625000X-0.400000X0.625000X-0.400000X0.625000X0.400000X0*%
%ADD31RoundRect,0.250000X-0.650000X0.412500X-0.650000X-0.412500X0.650000X-0.412500X0.650000X0.412500X0*%
%ADD32RoundRect,0.250000X0.650000X-0.800000X0.650000X0.800000X-0.650000X0.800000X-0.650000X-0.800000X0*%
%ADD33RoundRect,0.150000X0.150000X-0.587500X0.150000X0.587500X-0.150000X0.587500X-0.150000X-0.587500X0*%
%ADD34RoundRect,0.250000X-0.400000X-0.625000X0.400000X-0.625000X0.400000X0.625000X-0.400000X0.625000X0*%
%ADD35RoundRect,0.250000X-0.412500X-1.100000X0.412500X-1.100000X0.412500X1.100000X-0.412500X1.100000X0*%
%ADD36FreePoly0,90.000000*%
%ADD37FreePoly0,270.000000*%
%ADD38RoundRect,0.298387X-0.626613X-1.401613X0.626613X-1.401613X0.626613X1.401613X-0.626613X1.401613X0*%
G04 APERTURE END LIST*
D10*
%TO.C,C24*%
X83756000Y-33274000D03*
X75756000Y-33274000D03*
%TD*%
D11*
%TO.C,J8*%
X79756000Y-26352500D03*
D12*
X74041000Y-22923500D03*
X85471000Y-22923500D03*
%TD*%
D13*
%TO.C,C7*%
X33020000Y-52477500D03*
X33020000Y-54202500D03*
%TD*%
D14*
%TO.C,JP3*%
X23010500Y-27432000D03*
D15*
X21185500Y-27432000D03*
%TD*%
D16*
%TO.C,R9*%
X48006000Y-29106500D03*
X48006000Y-27281500D03*
%TD*%
%TO.C,R7*%
X69850000Y-51204500D03*
X69850000Y-49379500D03*
%TD*%
D15*
%TO.C,JP17*%
X52173500Y-42164000D03*
D14*
X53998500Y-42164000D03*
%TD*%
D17*
%TO.C,R3*%
X69850000Y-45315500D03*
X69850000Y-47140500D03*
%TD*%
D18*
%TO.C,U3*%
X60891500Y-28575000D03*
X60891500Y-29845000D03*
X60891500Y-31115000D03*
X60891500Y-32385000D03*
X60891500Y-33655000D03*
X60891500Y-34925000D03*
X60891500Y-36195000D03*
X60891500Y-37465000D03*
X66616500Y-37465000D03*
X66616500Y-36195000D03*
X66616500Y-34925000D03*
X66616500Y-33655000D03*
X66616500Y-32385000D03*
X66616500Y-31115000D03*
X66616500Y-29845000D03*
X66616500Y-28575000D03*
%TD*%
D15*
%TO.C,JP16*%
X52173500Y-40132000D03*
D14*
X53998500Y-40132000D03*
%TD*%
D19*
%TO.C,JP7*%
X24410000Y-38862000D03*
X21310000Y-38862000D03*
%TD*%
D20*
%TO.C,C1*%
X17171500Y-57658000D03*
X18896500Y-57658000D03*
%TD*%
D16*
%TO.C,JP20*%
X41910000Y-54252500D03*
X41910000Y-52427500D03*
%TD*%
D21*
%TO.C,C5*%
X38354000Y-54202500D03*
X38354000Y-52477500D03*
%TD*%
D13*
%TO.C,C8*%
X34774000Y-52477500D03*
X34774000Y-54202500D03*
%TD*%
D17*
%TO.C,R14*%
X42926000Y-57761500D03*
X42926000Y-59586500D03*
%TD*%
D22*
%TO.C,U2*%
X43694000Y-34179000D03*
X42894000Y-34179000D03*
X42094000Y-34179000D03*
X41294000Y-34179000D03*
X40494000Y-34179000D03*
X39694000Y-34179000D03*
X38894000Y-34179000D03*
X38094000Y-34179000D03*
D23*
X36719000Y-35554000D03*
X36719000Y-36354000D03*
X36719000Y-37154000D03*
X36719000Y-37954000D03*
X36719000Y-38754000D03*
X36719000Y-39554000D03*
X36719000Y-40354000D03*
X36719000Y-41154000D03*
D22*
X38094000Y-42529000D03*
X38894000Y-42529000D03*
X39694000Y-42529000D03*
X40494000Y-42529000D03*
X41294000Y-42529000D03*
X42094000Y-42529000D03*
X42894000Y-42529000D03*
X43694000Y-42529000D03*
D23*
X45069000Y-41154000D03*
X45069000Y-40354000D03*
X45069000Y-39554000D03*
X45069000Y-38754000D03*
X45069000Y-37954000D03*
X45069000Y-37154000D03*
X45069000Y-36354000D03*
X45069000Y-35554000D03*
%TD*%
D15*
%TO.C,JP12*%
X87733500Y-46736000D03*
D14*
X89558500Y-46736000D03*
%TD*%
D24*
%TO.C,U1*%
X73660000Y-48260000D03*
D25*
X75565000Y-45560000D03*
X74295000Y-45560000D03*
X73025000Y-45560000D03*
X71755000Y-45560000D03*
X71755000Y-50960000D03*
X73025000Y-50960000D03*
X74295000Y-50960000D03*
X75565000Y-50960000D03*
%TD*%
D26*
%TO.C,C22*%
X51662500Y-19558000D03*
X49937500Y-19558000D03*
%TD*%
D13*
%TO.C,C9*%
X73914000Y-52985500D03*
X73914000Y-54710500D03*
%TD*%
D16*
%TO.C,R6*%
X69850000Y-57300500D03*
X69850000Y-55475500D03*
%TD*%
D19*
%TO.C,JP4*%
X24410000Y-29718000D03*
X21310000Y-29718000D03*
%TD*%
D16*
%TO.C,R15*%
X50546000Y-55522500D03*
X50546000Y-53697500D03*
%TD*%
D27*
%TO.C,U4*%
X44130000Y-48138500D03*
X43180000Y-48138500D03*
X42230000Y-48138500D03*
X42230000Y-50413500D03*
X43180000Y-50413500D03*
X44130000Y-50413500D03*
%TD*%
D14*
%TO.C,JP10*%
X23010500Y-46990000D03*
D15*
X21185500Y-46990000D03*
%TD*%
D17*
%TO.C,R11*%
X34036000Y-21947500D03*
X34036000Y-23772500D03*
%TD*%
D16*
%TO.C,R2*%
X40132000Y-54252500D03*
X40132000Y-52427500D03*
%TD*%
D28*
%TO.C,C17*%
X80810500Y-51308000D03*
X77685500Y-51308000D03*
%TD*%
D16*
%TO.C,R4*%
X36576000Y-54252500D03*
X36576000Y-52427500D03*
%TD*%
D29*
%TO.C,R13*%
X51712500Y-17780000D03*
X49887500Y-17780000D03*
%TD*%
D30*
%TO.C,JP14*%
X56896000Y-41630000D03*
X56896000Y-44730000D03*
%TD*%
D28*
%TO.C,C18*%
X80810500Y-48006000D03*
X77685500Y-48006000D03*
%TD*%
D21*
%TO.C,C23*%
X54102000Y-23722500D03*
X54102000Y-21997500D03*
%TD*%
D31*
%TO.C,C2*%
X80264000Y-42099300D03*
X80264000Y-45224300D03*
%TD*%
D19*
%TO.C,JP5*%
X24410000Y-32258000D03*
X21310000Y-32258000D03*
%TD*%
D31*
%TO.C,C4*%
X77724000Y-42125500D03*
X77724000Y-45250500D03*
%TD*%
D29*
%TO.C,JP6*%
X23010500Y-34544000D03*
X21185500Y-34544000D03*
%TD*%
D20*
%TO.C,C11*%
X45873500Y-32004000D03*
X47598500Y-32004000D03*
%TD*%
D32*
%TO.C,Y1*%
X44838000Y-27866000D03*
X44838000Y-24966000D03*
X42538000Y-24966000D03*
X42538000Y-27866000D03*
%TD*%
D21*
%TO.C,C19*%
X36068000Y-45312500D03*
X36068000Y-43587500D03*
%TD*%
D20*
%TO.C,C6*%
X73559500Y-43434000D03*
X75284500Y-43434000D03*
%TD*%
D16*
%TO.C,R1*%
X27686000Y-54252500D03*
X27686000Y-52427500D03*
%TD*%
D14*
%TO.C,JP21*%
X47648500Y-50546000D03*
D15*
X45823500Y-50546000D03*
%TD*%
D33*
%TO.C,D1*%
X34102000Y-27607500D03*
X36002000Y-27607500D03*
X35052000Y-25732500D03*
%TD*%
D21*
%TO.C,C16*%
X34290000Y-45312500D03*
X34290000Y-43587500D03*
%TD*%
%TO.C,C12*%
X71628000Y-57250500D03*
X71628000Y-55525500D03*
%TD*%
D16*
%TO.C,R5*%
X31242000Y-54252500D03*
X31242000Y-52427500D03*
%TD*%
D34*
%TO.C,JP19*%
X50520000Y-27178000D03*
X53620000Y-27178000D03*
%TD*%
D15*
%TO.C,JP15*%
X52173500Y-38100000D03*
D14*
X53998500Y-38100000D03*
%TD*%
%TO.C,JP8*%
X23010500Y-41910000D03*
D15*
X21185500Y-41910000D03*
%TD*%
D21*
%TO.C,C3*%
X29464000Y-54202500D03*
X29464000Y-52477500D03*
%TD*%
D26*
%TO.C,C26*%
X51662500Y-16002000D03*
X49937500Y-16002000D03*
%TD*%
D14*
%TO.C,JP11*%
X23010500Y-49530000D03*
D15*
X21185500Y-49530000D03*
%TD*%
D14*
%TO.C,JP1*%
X23010500Y-23876000D03*
D15*
X21185500Y-23876000D03*
%TD*%
D35*
%TO.C,C15*%
X83019500Y-51308000D03*
X86144500Y-51308000D03*
%TD*%
D17*
%TO.C,R8*%
X38100000Y-26011500D03*
X38100000Y-27836500D03*
%TD*%
D26*
%TO.C,C10*%
X44550500Y-29972000D03*
X42825500Y-29972000D03*
%TD*%
D16*
%TO.C,R12*%
X55880000Y-23772500D03*
X55880000Y-21947500D03*
%TD*%
D13*
%TO.C,C27*%
X57658000Y-21997500D03*
X57658000Y-23722500D03*
%TD*%
D36*
%TO.C,JP13*%
X32512000Y-45362500D03*
D37*
X32512000Y-43537500D03*
%TD*%
D13*
%TO.C,C14*%
X40640000Y-25553500D03*
X40640000Y-27278500D03*
%TD*%
D21*
%TO.C,C20*%
X34251900Y-41756500D03*
X34251900Y-40031500D03*
%TD*%
D16*
%TO.C,R10*%
X32258000Y-23772500D03*
X32258000Y-21947500D03*
%TD*%
D20*
%TO.C,C13*%
X45873500Y-33782000D03*
X47598500Y-33782000D03*
%TD*%
D38*
%TO.C,L1*%
X75965000Y-56642000D03*
X81515000Y-56642000D03*
%TD*%
D13*
%TO.C,C21*%
X32258000Y-25807500D03*
X32258000Y-27532500D03*
%TD*%
D14*
%TO.C,JP2*%
X23010500Y-25654000D03*
D15*
X21185500Y-25654000D03*
%TD*%
D26*
%TO.C,C25*%
X58774500Y-33020000D03*
X57049500Y-33020000D03*
%TD*%
M02*
